<?xml version="1.0" encoding="utf-8"?>
<!-- Generator: Adobe Illustrator 18.1.1, SVG Export Plug-In . SVG Version: 6.00 Build 0)  -->
<svg version="1.1" id="Layer_1" xmlns="http://www.w3.org/2000/svg" xmlns:xlink="http://www.w3.org/1999/xlink" x="0px" y="0px"
	 viewBox="0 0 792 612" enable-background="new 0 0 792 612" xml:space="preserve">
<g>
	<g>
		<path fill="#03045E" d="M352.2,132.2c25.9-13.3,67.9-12.1,91.2,0.1c1.1-1.5,2.2-3,3.3-4.6c8.2-12,16.4-24.1,24.7-36.1
			c1.8-2.6,3.8-5.1,5.7-7.6c0.4-0.6,1-1.1,1.5-1.6c1.7-1.5,3-1.3,3.8,0.8c4.5,12.4,9.4,24.7,12.6,37.6c2,8.3,3,16.7,2.4,25.2
			c-0.6,8.6-3.7,16.1-9.9,22.2c-1.5,1.5-3,3.1-4.5,4.6c-0.9,0.9-1,1.7-0.6,2.9c2.2,6.4,3.9,13,4.7,19.7c0.7,5.9,1.2,11.9,1.3,17.9
			c0.2,13.8-0.4,9.7,3.9,22.1c2.1,5.9,3.8,11.9,4.5,18.1c1.9,16.4-1.9,31.2-12.7,44.1c-11.6,13.8-26.3,23.1-42.8,29.8
			c-9.1,3.7-18.5,6.1-28.2,7.4c-7.6,1-15.2,1.2-22.8,0.7c-14.8-0.9-28.8-4.9-42.2-11.2c-11.7-5.5-22.4-12.5-31.4-21.7
			c-7.5-7.6-13.2-16.3-16-26.7c-1.9-7.1-2.1-14.2-1.4-21.4c0.9-8.6,3.3-16.7,6.7-24.6c1.7-3.8,1.8-7.7,1.9-11.7
			c0.1-6.2,0.1-12.5,0.6-18.7c0.7-8,2.4-15.8,5.1-23.4c0.6-1.6,0.3-2.6-0.9-3.9c-3.1-3.3-6.3-6.5-8.8-10.2c-4.1-6-5.2-13.1-5.3-20.3
			c-0.2-11.6,2.2-22.8,5.8-33.7c2.7-8.1,5.7-16.1,8.6-24.2c0.1-0.3,0.2-0.6,0.4-0.9c0.9-2.1,2.3-2.5,3.9-0.7
			c2.3,2.6,4.5,5.2,6.5,8.1c9.2,13.3,18.3,26.7,27.5,40.1C351.4,131.2,351.8,131.6,352.2,132.2z M319.1,242.4
			c-0.3,0.6-0.6,1.2-0.8,1.7c-2.3,6.2-3.6,12.6-3.6,19.2c0,5.4,0.7,10.7,2.6,15.9c3.5,9.2,9.7,16.4,17.2,22.5
			c16.3,13.2,35.2,20.2,56,22.2c9.1,0.9,18.1,0.1,27-1.7c18.1-3.7,34.3-11.1,47.9-23.8c5.8-5.3,10.4-11.5,13.2-18.8
			c2.5-6.6,3.3-13.5,2.8-20.6c-0.4-5.5-1.8-10.7-4.3-15.6c-0.3-0.6-0.5-1.1-1.5-0.7c-8.8,3.5-18,5-27.5,4.8
			c-5.3-0.1-10-1.5-14.5-4.5c-7.3-4.8-14.7-9.3-22.2-13.7c-3.5-2.1-7.5-3.2-11.6-3.6c-6.4-0.5-12.2,1.4-17.5,4.5
			c-6.5,3.8-12.7,8.1-19.1,12c-2.4,1.5-4.8,3.1-7.4,3.9c-5.5,1.7-11.2,1.5-16.9,1C332,246.4,325.6,245,319.1,242.4z M414.3,211.9
			c0.9,0.8,1.3,1.2,1.7,1.5c5.2,4.1,10.9,6.8,17.5,7.6c7,0.8,13.2-0.7,18.4-5.7c6.9-6.7,10.6-15,12-24.4c0.1-0.9-0.2-1.2-1.1-1
			c-1.2,0.4-2.3,0.7-3.5,1.1c-12.2,3.7-24.1,7.9-35.1,14.4C420.9,207.4,417.8,209.6,414.3,211.9z M381.5,211.9
			c-1.8-1.3-3.3-2.5-4.9-3.5c-13.3-8.9-28.3-13.9-43.4-18.4c-0.9-0.3-1.1,0.1-0.9,0.9c1.2,7.5,3.7,14.5,8.5,20.6
			c2.7,3.4,5.6,6.6,9.8,8.3c5.1,2.1,10.4,1.9,15.6,0.5C371.8,218.9,376.9,216.2,381.5,211.9z"/>
		<g>
			<g>
				<path fill="#03045E" d="M397.9,302.7c-10.6-0.7-20-2.4-28.4-7.6c-5.3-3.3-9-8-10.3-14.3c-1-4.9-0.1-9.6,1.5-14.2
					c4.2-11.8,12.5-19.6,23.8-24.4c4.5-1.9,9.2-3.2,14.1-2.7c7.7,0.7,14.9,3.3,21.2,7.8c8.3,6,14.2,13.8,16.6,23.9
					c2,8.7-0.6,15.8-7.2,21.6c-5.3,4.7-11.7,7.1-18.6,8.3C406.2,302,401.6,302.3,397.9,302.7z M374,274.1c0.1,1.1,0.1,2.2,0.4,3.3
					c0.7,2.6,1.9,4.8,4.6,5.5c2.9,0.8,5.3-0.3,7.1-2.5c3.1-4,4.1-8.5,2.7-13.3c-1.4-5.2-6.8-6.7-10.8-2.9
					C375.3,266.8,374.1,270.2,374,274.1z M406.2,270.7c0.2,4.4,1.6,8.1,4.4,10.6c3,2.8,7.7,2.3,9.6-1.2c2.5-4.7,1.6-12.8-3.2-16.6
					c-3.6-2.8-8.2-1.6-9.8,2.7C406.6,267.6,406.5,269.2,406.2,270.7z"/>
			</g>
		</g>
	</g>
</g>
<g>
	<g>
		<path fill="#03045E" d="M237.2,379.5h-12.3v-8.2c0-2.4-0.1-3.9-0.4-4.5c-0.3-0.6-0.8-0.9-1.7-0.9c-1,0-1.7,0.4-1.9,1.1
			c-0.3,0.7-0.4,2.3-0.4,4.7v22c0,2.3,0.1,3.8,0.4,4.5s0.9,1.1,1.8,1.1c0.9,0,1.5-0.4,1.8-1.1c0.3-0.7,0.4-2.4,0.4-5v-6h12.3v1.8
			c0,4.9-0.3,8.4-1,10.4c-0.7,2.1-2.2,3.8-4.6,5.4c-2.4,1.5-5.3,2.3-8.8,2.3c-3.6,0-6.6-0.7-8.9-2c-2.3-1.3-3.9-3.1-4.6-5.4
			c-0.8-2.3-1.1-5.8-1.1-10.4v-13.8c0-3.4,0.1-6,0.4-7.7c0.2-1.7,0.9-3.3,2.1-4.9c1.2-1.6,2.8-2.8,4.8-3.7c2.1-0.9,4.4-1.4,7.1-1.4
			c3.6,0,6.6,0.7,9,2.1c2.4,1.4,3.9,3.2,4.7,5.2c0.7,2.1,1.1,5.3,1.1,9.8V379.5z"/>
		<path fill="#03045E" d="M269.8,386.6c0,4.8-0.1,8.1-0.3,10.1c-0.2,2-0.9,3.8-2.1,5.4c-1.2,1.6-2.8,2.9-4.8,3.8
			c-2,0.9-4.3,1.3-7,1.3c-2.5,0-4.8-0.4-6.8-1.2c-2-0.8-3.6-2.1-4.9-3.7c-1.2-1.7-2-3.5-2.2-5.4c-0.2-1.9-0.4-5.4-0.4-10.2v-8.1
			c0-4.8,0.1-8.1,0.3-10.1c0.2-2,0.9-3.8,2.1-5.4c1.2-1.6,2.8-2.9,4.8-3.8c2-0.9,4.3-1.3,7-1.3c2.5,0,4.8,0.4,6.8,1.2
			c2,0.8,3.6,2.1,4.9,3.7s2,3.5,2.2,5.4c0.2,2,0.4,5.4,0.4,10.2V386.6z M257.5,371.1c0-2.2-0.1-3.6-0.4-4.2s-0.7-0.9-1.5-0.9
			c-0.6,0-1.1,0.2-1.5,0.7c-0.3,0.5-0.5,2-0.5,4.4v22.1c0,2.7,0.1,4.4,0.3,5.1s0.7,1,1.6,1c0.8,0,1.4-0.4,1.6-1.1
			c0.2-0.7,0.4-2.5,0.4-5.3V371.1z"/>
		<path fill="#03045E" d="M303.1,379.5h-12.3v-8.2c0-2.4-0.1-3.9-0.4-4.5c-0.3-0.6-0.8-0.9-1.7-0.9c-1,0-1.7,0.4-1.9,1.1
			c-0.3,0.7-0.4,2.3-0.4,4.7v22c0,2.3,0.1,3.8,0.4,4.5s0.9,1.1,1.8,1.1c0.9,0,1.5-0.4,1.8-1.1c0.3-0.7,0.4-2.4,0.4-5v-6h12.3v1.8
			c0,4.9-0.3,8.4-1,10.4c-0.7,2.1-2.2,3.8-4.6,5.4c-2.4,1.5-5.3,2.3-8.8,2.3c-3.6,0-6.6-0.7-8.9-2c-2.3-1.3-3.9-3.1-4.6-5.4
			c-0.8-2.3-1.1-5.8-1.1-10.4v-13.8c0-3.4,0.1-6,0.4-7.7c0.2-1.7,0.9-3.3,2.1-4.9c1.2-1.6,2.8-2.8,4.8-3.7c2.1-0.9,4.4-1.4,7.1-1.4
			c3.6,0,6.6,0.7,9,2.1c2.4,1.4,3.9,3.2,4.7,5.2c0.7,2.1,1.1,5.3,1.1,9.8V379.5z"/>
		<path fill="#03045E" d="M335.9,358.9v47.4h-12.3v-19.9h-3.7v19.9h-12.3v-47.4h12.3v16.9h3.7v-16.9H335.9z"/>
		<path fill="#03045E" d="M353.1,358.9v47.4h-12.3v-47.4H353.1z"/>
		<path fill="#03045E" d="M382.7,382.8v8.2h-15.5v-8.2H382.7z"/>
		<path fill="#03045E" d="M396.8,358.9h12.3c3.9,0,6.8,0.3,8.8,0.9c2,0.6,3.6,1.8,4.8,3.7c1.2,1.8,1.8,4.8,1.8,8.9
			c0,2.8-0.4,4.7-1.3,5.8c-0.9,1.1-2.6,1.9-5.1,2.5c2.8,0.6,4.8,1.7,5.8,3.2s1.5,3.8,1.5,6.9v4.4c0,3.2-0.4,5.6-1.1,7.1
			c-0.7,1.5-1.9,2.6-3.5,3.2s-4.9,0.8-9.8,0.8h-14.2V358.9z M409.1,367v10.5c0.5,0,0.9,0,1.2,0c1.2,0,2-0.3,2.3-0.9
			c0.3-0.6,0.5-2.3,0.5-5.1c0-1.5-0.1-2.5-0.4-3.1c-0.3-0.6-0.6-1-1.1-1.1C411.2,367.1,410.4,367,409.1,367z M409.1,384.9v13.2
			c1.7-0.1,2.8-0.3,3.3-0.8s0.7-1.7,0.7-3.6v-4.4c0-2-0.2-3.3-0.6-3.7S411,385,409.1,384.9z"/>
		<path fill="#03045E" d="M451.2,358.9l7,47.4h-12.6l-0.7-8.5h-4.4l-0.7,8.5h-12.7l6.3-47.4H451.2z M444.6,389.3
			c-0.6-5.4-1.3-12-1.9-19.9c-1.3,9.1-2,15.7-2.4,19.9H444.6z"/>
		<path fill="#03045E" d="M481.8,358.9v9.5h-7.3v37.9h-12.3v-37.9h-7.3v-9.5H481.8z"/>
		<path fill="#03045E" d="M522.6,358.9v47.4h-10.8l0-32l-4.3,32h-7.6l-4.5-31.2l0,31.2h-10.8v-47.4h15.9c0.5,2.8,1,6.2,1.5,10.1
			l1.7,12l2.8-22.1H522.6z"/>
		<path fill="#03045E" d="M548.8,358.9l7,47.4h-12.6l-0.7-8.5h-4.4l-0.7,8.5h-12.7l6.3-47.4H548.8z M542.3,389.3
			c-0.6-5.4-1.2-12-1.9-19.9c-1.3,9.1-2,15.7-2.4,19.9H542.3z"/>
		<path fill="#03045E" d="M585.5,358.9v47.4h-10.8l-6.4-21.5v21.5H558v-47.4h10.3l6.9,21.3v-21.3H585.5z"/>
	</g>
</g>
<g>
	<g>
		<path fill="#0078B7" d="M181.4,456.4c-1.5,0-3.4-0.4-3.7-1.6l-0.1-0.7c0-5,6.6-26.3,8.4-30.1c0-0.1,0.1-0.2,0.2-0.3
			c-2-0.2-4-0.4-5.8-0.4c-1.3,0-2.5,0.1-3.6,0.2c-2.3,0.3-3.9,1-4.2,2.1c-0.1,0.3-0.3,0.5-0.6,0.5c-0.2,0-0.3-0.1-0.5-0.2
			c-0.4-0.3-0.6-1.2-0.6-2.2c0-1.4,0.3-3.1,0.6-3.4c1.6-2.2,4.6-2.5,7.4-2.5h1.1c3.4,0.1,7.6,0.8,11.6,1.5c3.8,0.7,7.4,1.4,10,1.4
			c1.5,0,2.7-0.2,3.3-0.9c0.1-0.1,0.2-0.2,0.4-0.2c0.2,0,0.4,0.1,0.6,0.4c0.2,0.6,0.4,1.2,0.4,1.8c0,0.5-0.1,0.9-0.2,1.4
			c-0.3,1.2-1,2.2-1.7,2.6c-0.6,0.3-1.4,0.4-2.4,0.4c-2,0-4.6-0.6-7.4-1.2c-2.6-0.5-3.1-0.6-3.3-0.7v0.2l-0.1,0.6
			c-2.3,5.2-8.8,25.1-8.9,30.4c0,0.3-0.2,0.6-0.6,0.6H181.4z"/>
		<path fill="#0078B7" d="M202.6,453.3c-1.5,0-3.1-0.2-3.8-1.5c-0.4-0.6-0.5-1.5-0.5-2.6c0-0.6,0.1-1.2,0.1-2
			c-1.4,2.5-3.4,4.9-5.8,4.9h-0.1c-3-0.1-4.2-2.5-4.2-5.7c0-6.1,4.4-14.8,10.5-14.8h0.1c1.6,0,2.9,0.6,3.6,1.7l0.4-1.1
			c0.3-0.5,0.9-0.7,1.6-0.7c1.4,0,3.3,0.9,3.3,1.8l-0.1,0.2c-0.8,2-4.8,12.5-4.9,17c0,0.9,0.1,1.4,0.4,1.4c2-0.1,5.9-7.9,7.7-11.8
			c0.1-0.3,0.3-0.4,0.6-0.4l0.3,0.1c0.2,0.1,0.3,0.2,0.3,0.5c0,0.1,0,0.1-0.1,0.3c-2,4.4-5.8,12.4-8.7,12.5H202.6z M199.9,440.7
			c0.3-0.8,0.9-2.5,0.9-3.8c0-0.9-0.2-1.5-0.9-1.7l-0.4-0.1c-2.8,0-6.3,8.4-6.3,12c0,1,0.3,1.7,0.9,1.7
			C196,448.7,199.3,442.2,199.9,440.7z"/>
		<path fill="#0078B7" d="M216.8,453.3c-5.2-0.2-7.1-3.3-7.1-7.1c0-1.9,0.4-3.9,1.2-5.9c1.5-4,4.8-8.7,9.3-8.7
			c0.4,0,0.9,0.1,1.4,0.1c2.5,0.5,3.4,2.3,3.4,4.1c0,1.2-0.4,2.4-1.1,3.2c-0.5,0.6-1,0.9-1.7,0.9c-0.4,0-0.8-0.1-1.2-0.4
			c-0.2-0.1-0.2-0.3-0.2-0.6c0-0.1,0-0.2,0.1-0.2c0.2-0.4,1.5-2.5,1.5-3.5c0-0.3-0.1-0.5-0.4-0.6h-0.2c-1.7,0-5.2,4.3-6.5,8.9
			c-0.3,0.9-0.5,2.2-0.5,3.4c0,2.2,0.6,4.3,2.4,4.9c0.3,0.1,0.6,0.1,0.9,0.1c0.4,0,0.9-0.1,1.4-0.2c2.2-0.8,5.3-3.4,9.2-11.5
			c0.1-0.3,0.3-0.4,0.5-0.4s0.3,0.1,0.3,0.1c0.2,0.1,0.3,0.3,0.3,0.6c0,0,0,0.1-0.1,0.2c-4.1,8.5-7.4,11.3-9.9,12.2
			c-0.9,0.3-1.6,0.4-2.2,0.4H216.8z"/>
		<path fill="#0078B7" d="M249.8,453.4c-3.6,0-5.4-2.4-5.4-5c0-1.4,0.5-2.9,1.4-4.1c0.3-0.4,0.8-0.6,1.3-0.6c1.4,0,3.1,1.3,3.1,2.1
			c0,0.2-0.1,0.3-0.2,0.4c-0.9,0.8-1.8,3-1.8,4.4c0,0.4,0.1,0.7,0.3,0.9c0.1,0.1,0.2,0.1,0.4,0.1c0.4,0,0.8-0.3,1.1-0.7
			c0.9-1.1,1.1-2.6,1.1-4.4c0-3-0.7-6.4-0.7-9.1c0-0.4,0-0.9,0.1-1.3c-1.8,3.3-4.4,8.5-8.7,8.5h-0.4c-1.4,3.9-4.4,8.9-8.6,8.9
			c-3.9,0-5.5-3.1-5.5-7.1c0-6.4,4.2-14.7,10-14.7c0.5,0,1,0.1,1.5,0.2c2.9,0.8,3.8,3.5,3.8,6.3c0,1.8-0.4,3.8-0.8,5.2
			c3.5,0,6.3-5.4,7.6-8c1-2,2-3.8,2.6-3.8h4.6c0.4,0,0.6,0.3,0.6,0.6c0,0.1,0,0.2-0.1,0.4c-1.1,1.7-1.5,3.3-1.5,5
			c0,2.6,0.9,5.2,0.9,7.8c0,0.6-0.1,1.2-0.2,1.8c-0.3,1.4-0.7,2.5-1.2,3.3c0.8-0.8,2.1-2.5,3.1-4c1-1.6,2.2-3.7,3.4-6.3
			c0.1-0.2,0.3-0.4,0.6-0.4c0.3,0,0.6,0.2,0.6,0.6c0,0.1,0,0.2-0.1,0.3c-1.2,2.3-2.3,4.6-3.6,6.6c-0.9,1.4-1.8,2.6-2.9,3.8
			c-1.8,2.1-4,2.2-5.8,2.2H249.8z M238.7,443.6c-1-0.7-1.4-1.8-1.4-2.9c0-1.8,1.1-3.5,2.3-3.9c-0.2-0.7-0.5-1.4-1.3-1.4h-0.4
			c-3,0.4-6.2,8.8-6.2,13.3c0,1.5,0.4,2.6,1.3,2.8h0.2C235.7,451.5,238.1,445.5,238.7,443.6z"/>
		<path fill="#0078B7" d="M271.1,464.8c-2.6-0.2-4.1-1.8-4.1-4.2l0.1-1c0.6-3.9,3.8-5.2,9.4-5.5c0.8-2.2,1.2-3.5,1.9-6.3
			c-1.5,2.7-3.4,5.4-5.2,5.5h-0.8c-1.5,0-3.1-0.2-3.8-1.5c-0.4-0.6-0.5-1.5-0.5-2.5c0-5,3.3-14.1,4.7-17c0.2-0.5,0.8-0.7,1.5-0.7
			c1.5,0,3.4,0.9,3.4,1.9l-0.1,0.2c-0.6,1.4-5,13.7-5,17.3c0,0.6,0.2,1,0.5,1c0.7-0.1,1.8-0.9,3.4-3.4c1.2-2,2.8-5.2,4.4-9.7
			c0.6-2.2,1.4-4.4,2.2-6.6c0.2-0.6,0.9-0.8,1.7-0.8c1.5,0,3.4,0.8,3.4,1.8l-0.1,0.2c-0.7,2-1.5,4.6-2.4,7.6
			c-1.3,4.1-2.7,8.7-4.1,12.6c1.7-0.9,3.1-2.3,4.3-4.1c1.7-2.3,3.1-5.5,4.9-9.4c0.1-0.2,0.4-0.4,0.6-0.4c0.3,0,0.6,0.2,0.6,0.6
			c0,0.1,0,0.2-0.1,0.3c-1.8,4-3.3,7.2-4.9,9.6c-1.7,2.4-3.5,4.1-6,5c-1.7,4.2-4.2,9.4-9.4,9.4H271.1z M276.1,455.4
			c-5.1,0.3-6.9,1.5-7.5,3.7c-0.1,0.4-0.2,0.9-0.2,1.2c0,1,0.4,1.8,1.8,1.8C272.5,462.1,274.7,458.9,276.1,455.4z"/>
		<path fill="#0078B7" d="M305.8,464.8c-2.7-0.2-4.1-1.9-4.1-4.2c0-0.4,0.1-0.7,0.1-1.2c0.7-3.7,3.8-5,9.4-5.4c0.7-2,1-3.3,1.8-5.9
			c-1.4,2-3.1,3.9-5.2,3.9h-0.1c-3-0.1-4.2-2.5-4.2-5.7c0-6.1,4.4-14.8,10.5-14.8h0.1c1.4,0,2.6,0.5,3.4,1.5c0.1-0.4,0.2-0.8,0.4-1
			c0.4-0.4,1-0.6,1.7-0.6c1.5,0,3.2,1,3.2,1.8l-0.1,0.2c-0.7,2-1.5,4.6-2.4,7.6c-1.3,4.1-2.7,8.7-4.1,12.6c1.7-0.9,3.1-2.3,4.4-4.1
			c1.6-2.3,3-5.5,4.9-9.4c0.1-0.2,0.3-0.4,0.6-0.4c0.1,0,0.1,0,0.2,0.1c0.2,0.1,0.4,0.2,0.4,0.6c0,0.1,0,0.1-0.1,0.2
			c-1.8,4-3.3,7.2-5,9.6c-1.7,2.4-3.4,4.1-6,5c-1.7,4.2-4.2,9.4-9.4,9.4H305.8z M310.8,455.4c-4.2,0.2-7,1.2-7.6,4.1
			c-0.1,0.2-0.1,0.5-0.1,0.7c0,1,0.6,1.8,1.8,1.8C307.2,462.1,309.3,458.9,310.8,455.4z M315.2,440.5c0.2-0.6,0.8-2.3,0.8-3.8
			c0-0.9-0.3-1.7-1.2-1.7c-2.9,0.1-6.4,8.4-6.4,12c0,1,0.2,1.6,0.9,1.6h0.1C311.1,448.7,314.5,442.3,315.2,440.5z"/>
		<path fill="#0078B7" d="M324.3,446.3c0-6.3,4.2-14.7,10-14.7c0.5,0,1,0.1,1.5,0.2c3,0.8,3.8,3.4,3.8,6.2c0,1.8-0.4,3.8-0.8,5.4
			h0.1c3.8,0,6.6-6.8,7.6-9.8c-0.6-0.4-0.7-1-0.7-1.7c0-0.9,0.3-1.8,0.6-2.6c0.2-0.4,0.8-0.6,1.5-0.6c0.7,0,1.5,0.2,1.5,0.7v0.2
			l-0.9,2.7c1.5-0.1,2.9-0.6,4.1-0.6c2,0.1,3.4,1,3.6,3.2c0,2.3-4.1,10.6-4.1,15.6c0.1,1.2,0.1,1.8,0.8,1.8c0.8,0,2-1.4,2.3-1.9
			c1.2-1.7,2.7-4.8,5-10c0.1-0.2,0.3-0.3,0.5-0.3c0.3,0,0.7,0.2,0.7,0.6c0,0,0,0.1-0.1,0.2c-4.8,10.7-6.3,12.5-8.4,12.5h-0.7
			c-1.5,0-3.6-0.1-4.3-1.4c-0.4-0.6-0.5-1.5-0.5-2.5c0-4.6,3.1-12.3,4.2-15.6c-0.9,0.1-2.1,0.4-3.1,0.4l-0.9-0.1
			c-1.5,3.8-4.1,10.4-8.7,10.4h-0.5c-1.4,3.9-4.4,8.9-8.7,8.9C325.9,453.3,324.3,450.2,324.3,446.3z M335.7,443.5
			c-1-0.7-1.4-1.8-1.4-2.9c0-1.8,1.1-3.5,2.3-3.9c-0.2-0.7-0.5-1.4-1.4-1.4c-3.1,0.2-6.5,8.3-6.5,13.3c0,1.8,0.4,2.7,1.5,2.8
			C332.7,451.4,335.1,445.4,335.7,443.5z"/>
		<path fill="#0078B7" d="M373.1,453.3c-1.5,0-2.9-0.2-3.5-1.5c-0.3-0.7-0.4-1.5-0.4-2.6c0-0.7,0.1-1.6,0.2-2.5
			c-1.5,2.6-3.7,5.4-6.3,5.4H363c-3-0.1-4.2-2.5-4.2-5.7c0-6.1,4.4-14.8,10.5-14.8h0.1c1.5,0,2.8,0.4,3.5,1.5c1.5-4.3,3-8,3.6-9.5
			c0.2-0.5,0.9-0.7,1.7-0.7c1.7,0,3.8,0.9,3.8,1.7v0.2c-0.7,2-7.4,19-8.1,25.3l-0.1,1.4c0,0.3,0.1,0.5,0.1,0.5
			c0.5,0,1.2-0.7,1.4-0.8c2.1-2.2,4.9-7.9,6.3-11c0.1-0.3,0.3-0.4,0.6-0.4l0.3,0.1c0.2,0.1,0.3,0.2,0.3,0.5c0,0.1,0,0.2-0.1,0.3
			c-1.5,3.4-4.2,8.9-6.6,11.4c-0.7,0.7-1.4,1.2-2.1,1.2H373.1z M370.5,440.7c0.2-0.6,0.8-2.4,0.8-3.8c0-1-0.3-1.8-1.2-1.8h-0.1
			c-2.9,0-6.4,8.4-6.4,12c0,1,0.2,1.7,0.9,1.7C366.5,448.7,369.9,442.3,370.5,440.7z"/>
		<path fill="#0078B7" d="M384.1,453.3c-1.5,0-3.1-0.2-3.8-1.5c-0.4-0.6-0.6-1.6-0.6-2.7c0-1.3,0.2-2.8,0.6-4.4
			c1-4.6,3-10.1,3.9-12.4c0.2-0.5,0.9-0.7,1.5-0.7c1.5,0,3.4,0.9,3.4,1.8l-0.1,0.2c-0.5,1.4-4.8,13.6-4.8,17.3c0,0.7,0.1,1,0.5,1
			c2-0.1,5.8-7.9,7.6-11.8c0.1-0.3,0.3-0.4,0.6-0.4l0.3,0.1c0.2,0.1,0.3,0.2,0.3,0.5c0,0.1,0,0.2-0.1,0.3c-2,4.4-5.7,12.4-8.5,12.5
			H384.1z M386.3,427.8c0-1,0.7-3.4,1.1-4.2c0.2-0.6,0.7-0.7,1.4-0.7c1.4,0,3.3,1,3.3,1.9c0,0.1,0,0.3-0.1,0.4
			c-0.3,0.6-1.2,2.8-1.6,3.7c-0.1,0.3-0.6,0.4-1,0.4C388.1,429.4,386.3,428.6,386.3,427.8z"/>
		<path fill="#0078B7" d="M394.7,453.3c-1.5,0-2.9-0.2-3.4-1.5c-0.3-0.7-0.5-1.7-0.5-2.8c0-4.8,2.5-12.8,4.8-18.9
			c-1.2-0.1-2.4-0.1-3.4-0.1c-0.4-0.1-0.6-0.4-0.6-0.6c0-0.3,0.2-0.6,0.6-0.6l3.8,0.1c0.8-2.1,1.5-3.9,2.2-5.2
			c0.2-0.6,0.8-0.7,1.5-0.7c1.6,0,3.8,1,3.8,1.9l-0.1,0.2c-0.6,1.2-1.1,2.6-1.7,4.1l3.1,0.1c0.4,0,0.6,0.3,0.6,0.6s-0.2,0.6-0.7,0.6
			c-1-0.1-2.2-0.1-3.5-0.1c-1.9,5.7-4,12-5.2,17.2c-0.1,0.4-0.7,2.9-0.7,4c0,0.4,0.1,0.6,0.2,0.6c0.7,0,1.8-1.5,2.3-2
			c1.9-2.6,4.1-7.1,5.4-9.8c0.1-0.3,0.3-0.4,0.6-0.4c0.1,0,0.2,0,0.3,0.1c0.2,0.1,0.3,0.3,0.3,0.6c0,0,0,0.1-0.1,0.2
			c-1.3,3-3.6,7.5-5.7,10.3c-0.7,0.9-1.9,2.2-3.1,2.3H394.7z"/>
		<path fill="#0078B7" d="M416.1,453.3c-1.5,0-3.1-0.2-3.8-1.5c-0.4-0.6-0.5-1.5-0.5-2.6c0-0.6,0.1-1.2,0.1-2
			c-1.4,2.5-3.4,4.9-5.8,4.9H406c-3-0.1-4.2-2.5-4.2-5.7c0-6.1,4.4-14.8,10.5-14.8h0.1c1.6,0,2.9,0.6,3.6,1.7l0.4-1.1
			c0.3-0.5,0.9-0.7,1.6-0.7c1.4,0,3.3,0.9,3.3,1.8l-0.1,0.2c-0.8,2-4.8,12.5-4.9,17c0,0.9,0.1,1.4,0.4,1.4c2-0.1,5.9-7.9,7.7-11.8
			c0.1-0.3,0.3-0.4,0.6-0.4l0.3,0.1c0.2,0.1,0.3,0.2,0.3,0.5c0,0.1,0,0.1-0.1,0.3c-2,4.4-5.8,12.4-8.7,12.5H416.1z M413.4,440.7
			c0.3-0.8,0.9-2.5,0.9-3.8c0-0.9-0.2-1.5-0.9-1.7l-0.4-0.1c-2.8,0-6.3,8.4-6.3,12c0,1,0.3,1.7,0.9,1.7
			C409.5,448.7,412.8,442.2,413.4,440.7z"/>
		<path fill="#0078B7" d="M427.1,453.3c-3.6,0-5.4-2.3-5.4-5c0-1.4,0.5-2.9,1.4-4.2c0.3-0.4,0.8-0.6,1.3-0.6c1.4,0,3.2,1.3,3.2,2.2
			c0,0.1-0.1,0.3-0.2,0.4c-1,0.8-1.8,3-1.8,4.2c0,0.5,0.1,0.8,0.4,1c0.1,0.1,0.2,0.1,0.4,0.1c0.4,0,0.8-0.3,1.1-0.7
			c0.9-1.1,1.1-2.6,1.1-4.4c0-3-0.7-6.4-0.7-9.1c0-0.4,0-0.9,0.1-1.3l-2.2,4.8c-0.1,0.2-0.4,0.3-0.6,0.3c-0.1,0-0.2,0-0.3-0.1
			s-0.3-0.1-0.3-0.4c0-0.1,0-0.3,0.1-0.4c0.5-1.1,3.7-8.6,4.9-8.6h4.6c0.4,0,0.6,0.2,0.6,0.6c0,0.1,0,0.3-0.1,0.4
			c-1.1,1.7-1.5,3.3-1.5,4.9c0,2.6,0.9,5.2,0.9,7.8c0,0.6-0.1,1.2-0.2,1.8c-0.3,1.4-0.7,2.5-1.2,3.4c0.8-0.9,2.1-2.5,3.1-4
			c1-1.7,2.2-3.7,3.4-6.3c0.1-0.2,0.3-0.3,0.6-0.3c0.1,0,0.2,0,0.3,0.1c0.2,0.1,0.3,0.3,0.3,0.6l-0.1,0.2c-1.1,2.3-2.3,4.6-3.6,6.6
			c-0.9,1.4-1.8,2.6-2.9,3.8c-1.8,2-4,2.2-5.8,2.2H427.1z"/>
		<path fill="#0078B7" d="M465.9,453.3c-1.5,0-2.9-0.2-3.5-1.5c-0.3-0.7-0.4-1.5-0.4-2.6c0-0.7,0.1-1.6,0.2-2.5
			c-1.5,2.6-3.7,5.4-6.3,5.4h-0.1c-3-0.1-4.2-2.5-4.2-5.7c0-6.1,4.4-14.8,10.5-14.8h0.1c1.5,0,2.8,0.4,3.5,1.5c1.5-4.3,3-8,3.6-9.5
			c0.2-0.5,0.9-0.7,1.7-0.7c1.7,0,3.8,0.9,3.8,1.7v0.2c-0.7,2-7.4,19-8.1,25.3l-0.1,1.4c0,0.3,0.1,0.5,0.1,0.5
			c0.5,0,1.2-0.7,1.4-0.8c2.1-2.2,4.9-7.9,6.3-11c0.1-0.3,0.3-0.4,0.6-0.4l0.3,0.1c0.2,0.1,0.3,0.2,0.3,0.5c0,0.1,0,0.2-0.1,0.3
			c-1.5,3.4-4.2,8.9-6.6,11.4c-0.7,0.7-1.4,1.2-2.1,1.2H465.9z M463.4,440.7c0.2-0.6,0.8-2.4,0.8-3.8c0-1-0.3-1.8-1.2-1.8h-0.1
			c-2.9,0-6.4,8.4-6.4,12c0,1,0.2,1.7,0.9,1.7C459.4,448.7,462.8,442.3,463.4,440.7z"/>
		<path fill="#0078B7" d="M480.3,453.3c-5.2-0.2-7.1-3.3-7.1-7.1c0-1.9,0.4-3.9,1.2-5.9c1.5-3.9,4.7-8.7,9.2-8.7h0.2
			c2.3,0.1,4.2,1.2,4.2,3.6v0.1c-0.1,4.4-4.6,9.7-7.9,9.7c-0.6,0-1.2-0.2-1.7-0.6c-0.1,0.7-0.2,1.5-0.2,2.3c0,2.3,0.7,4.7,2.7,5.2
			l0.7,0.1c0.4,0,0.9-0.1,1.4-0.2c2.2-0.8,5.2-3.4,9.1-11.5c0.1-0.2,0.3-0.4,0.5-0.4c0.1,0,0.2,0.1,0.4,0.1c0.2,0.1,0.3,0.2,0.3,0.5
			c0,0,0,0.1-0.1,0.2c-4.1,8.6-7.5,11.4-10,12.2c-0.8,0.2-1.5,0.3-2.2,0.3H480.3z M485.9,435.5c0-0.4-0.1-0.6-0.3-0.7
			s-0.3-0.1-0.5-0.1c-1.4,0-3.4,2.6-4,3.4c-0.9,1.4-1.7,3-2.2,4.5c0.2,0.2,0.6,0.2,0.9,0.2C482.4,442.9,485.9,437.5,485.9,435.5z"/>
		<path fill="#0078B7" d="M511.9,453.3c-5.2-0.2-7.1-3.3-7.1-7.1c0-1.9,0.4-3.9,1.2-5.9c1.5-4,4.8-8.7,9.3-8.7
			c0.4,0,0.9,0.1,1.4,0.1c2.5,0.5,3.4,2.3,3.4,4.1c0,1.2-0.4,2.4-1.1,3.2c-0.5,0.6-1,0.9-1.7,0.9c-0.4,0-0.8-0.1-1.2-0.4
			c-0.2-0.1-0.2-0.3-0.2-0.6c0-0.1,0-0.2,0.1-0.2c0.2-0.4,1.5-2.5,1.5-3.5c0-0.3-0.1-0.5-0.4-0.6h-0.2c-1.7,0-5.2,4.3-6.5,8.9
			c-0.3,0.9-0.5,2.2-0.5,3.4c0,2.2,0.6,4.3,2.4,4.9c0.3,0.1,0.6,0.1,0.9,0.1c0.4,0,0.9-0.1,1.4-0.2c2.2-0.8,5.3-3.4,9.2-11.5
			c0.1-0.3,0.3-0.4,0.5-0.4s0.3,0.1,0.3,0.1c0.2,0.1,0.3,0.3,0.3,0.6c0,0,0,0.1-0.1,0.2c-4.1,8.5-7.4,11.3-9.9,12.2
			c-0.9,0.3-1.6,0.4-2.2,0.4H511.9z"/>
		<path fill="#0078B7" d="M522.5,446.3c0-6.3,4.2-14.6,10-14.6c0.5,0,1,0.1,1.5,0.2c3,0.7,3.8,3.5,3.8,6.4c0,1.8-0.4,3.7-0.8,5.1
			c2,0,4.2-1,5.3-3.1c0.1-0.2,0.3-0.3,0.5-0.3c0.1,0,0.2,0.1,0.4,0.1c0.2,0.1,0.2,0.2,0.2,0.4c0,0.1,0,0.2-0.1,0.4
			c-1.2,2.3-3.8,3.7-6.3,3.7h-0.5c-1.4,3.9-4.4,8.8-8.6,8.8C524.1,453.3,522.5,450.2,522.5,446.3z M533.8,443.6
			c-1-0.7-1.4-1.8-1.4-2.9c0-1.8,1.1-3.6,2.3-3.9c-0.2-0.8-0.6-1.4-1.4-1.4h-0.3c-3,0.5-6.2,8.9-6.2,13.3c0,1.5,0.4,2.6,1.3,2.8h0.2
			C530.8,451.4,533.2,445.5,533.8,443.6z"/>
		<path fill="#0078B7" d="M548.1,453.3c-5.2-0.2-7.1-3.3-7.1-7.1c0-1.9,0.4-3.9,1.2-5.9c1.5-4,4.8-8.7,9.3-8.7
			c0.4,0,0.9,0.1,1.4,0.1c2.5,0.5,3.4,2.3,3.4,4.1c0,1.2-0.4,2.4-1.1,3.2c-0.5,0.6-1,0.9-1.7,0.9c-0.4,0-0.8-0.1-1.2-0.4
			c-0.2-0.1-0.2-0.3-0.2-0.6c0-0.1,0-0.2,0.1-0.2c0.2-0.4,1.5-2.5,1.5-3.5c0-0.3-0.1-0.5-0.4-0.6H553c-1.7,0-5.2,4.3-6.5,8.9
			c-0.3,0.9-0.5,2.2-0.5,3.4c0,2.2,0.6,4.3,2.4,4.9c0.3,0.1,0.6,0.1,0.9,0.1c0.4,0,0.9-0.1,1.4-0.2c2.2-0.8,5.3-3.4,9.2-11.5
			c0.1-0.3,0.3-0.4,0.5-0.4s0.3,0.1,0.3,0.1c0.2,0.1,0.3,0.3,0.3,0.6c0,0,0,0.1-0.1,0.2c-4.1,8.5-7.4,11.3-9.9,12.2
			c-0.9,0.3-1.6,0.4-2.2,0.4H548.1z"/>
		<path fill="#0078B7" d="M568.8,449.8c0.1-4.6,3.7-14.4,3.7-15.1c0-0.3-0.1-0.4-0.2-0.4s-0.4,0.2-0.6,0.4
			c-3.4,3.1-7.1,9.5-8.2,11.4c-0.8,2.8-1.4,5.2-1.4,6.5c0,0.6-0.5,0.6-1.2,0.6c-2,0-3.3-0.4-3.4-2.3c0-4.9,6.7-23.6,8.2-27.4
			c0.2-0.5,0.8-0.7,1.6-0.7c1.5,0,3.6,0.9,3.6,1.8l-0.1,0.2c-0.7,1.8-3.6,9.4-5.8,16.4c0.9-1.4,1.9-2.9,3-4.3c2-2.4,4.4-5.5,7-5.5
			c1.5,0,2.8,0.9,2.8,2.6l-0.1,0.7c-0.9,4.2-3.8,12.5-3.8,16.1c0,0.7,0.1,1.1,0.4,1.1c1.7-0.1,3-2.9,7-11.8c0.1-0.2,0.3-0.4,0.6-0.4
			c0.3,0,0.6,0.2,0.6,0.6l-0.1,0.3c-4.3,9.8-5.7,12.4-8,12.5l-1.7,0.1C570.4,453.4,568.8,452.9,568.8,449.8z"/>
		<path fill="#0078B7" d="M583.6,453.3c-1.5,0-3.1-0.2-3.8-1.5c-0.4-0.6-0.6-1.6-0.6-2.7c0-1.3,0.2-2.8,0.6-4.4
			c1-4.6,3-10.1,3.9-12.4c0.2-0.5,0.9-0.7,1.5-0.7c1.5,0,3.4,0.9,3.4,1.8l-0.1,0.2c-0.5,1.4-4.8,13.6-4.8,17.3c0,0.7,0.1,1,0.5,1
			c2-0.1,5.8-7.9,7.6-11.8c0.1-0.3,0.3-0.4,0.6-0.4l0.3,0.1c0.2,0.1,0.3,0.2,0.3,0.5c0,0.1,0,0.2-0.1,0.3c-2,4.4-5.7,12.4-8.5,12.5
			H583.6z M585.9,427.8c0-1,0.7-3.4,1.1-4.2c0.2-0.6,0.7-0.7,1.4-0.7c1.4,0,3.3,1,3.3,1.9c0,0.1,0,0.3-0.1,0.4
			c-0.3,0.6-1.2,2.8-1.6,3.7c-0.1,0.3-0.6,0.4-1,0.4C587.7,429.4,585.9,428.6,585.9,427.8z"/>
		<path fill="#0078B7" d="M594.2,453.3c-1.5,0-2.9-0.2-3.4-1.5c-0.3-0.7-0.5-1.7-0.5-2.8c0-4.8,2.5-12.8,4.8-18.9
			c-1.2-0.1-2.4-0.1-3.4-0.1c-0.4-0.1-0.6-0.4-0.6-0.6c0-0.3,0.2-0.6,0.6-0.6l3.8,0.1c0.8-2.1,1.5-3.9,2.2-5.2
			c0.2-0.6,0.8-0.7,1.5-0.7c1.6,0,3.8,1,3.8,1.9L603,425c-0.6,1.2-1.1,2.6-1.7,4.1l3.1,0.1c0.4,0,0.6,0.3,0.6,0.6s-0.2,0.6-0.7,0.6
			c-1-0.1-2.2-0.1-3.5-0.1c-1.9,5.7-4,12-5.2,17.2c-0.1,0.4-0.7,2.9-0.7,4c0,0.4,0.1,0.6,0.2,0.6c0.7,0,1.8-1.5,2.3-2
			c1.9-2.6,4.1-7.1,5.4-9.8c0.1-0.3,0.3-0.4,0.6-0.4c0.1,0,0.2,0,0.3,0.1c0.2,0.1,0.3,0.3,0.3,0.6c0,0,0,0.1-0.1,0.2
			c-1.3,3-3.6,7.5-5.7,10.3c-0.7,0.9-1.9,2.2-3.1,2.3H594.2z"/>
		<path fill="#0078B7" d="M601.5,446.3c0-6.3,4.2-14.6,10-14.6c0.5,0,1,0.1,1.5,0.2c3,0.7,3.8,3.5,3.8,6.4c0,1.8-0.4,3.7-0.8,5.1
			c2,0,4.2-1,5.3-3.1c0.1-0.2,0.3-0.3,0.5-0.3c0.1,0,0.2,0.1,0.4,0.1c0.2,0.1,0.2,0.2,0.2,0.4c0,0.1,0,0.2-0.1,0.4
			c-1.2,2.3-3.8,3.7-6.3,3.7h-0.5c-1.4,3.9-4.4,8.8-8.6,8.8C603.1,453.3,601.5,450.2,601.5,446.3z M612.9,443.6
			c-1-0.7-1.4-1.8-1.4-2.9c0-1.8,1.1-3.6,2.3-3.9c-0.2-0.8-0.6-1.4-1.4-1.4h-0.3c-3,0.5-6.2,8.9-6.2,13.3c0,1.5,0.4,2.6,1.3,2.8h0.2
			C609.8,451.4,612.2,445.5,612.9,443.6z"/>
	</g>
</g>
<g>
</g>
<g>
	<rect x="-1" y="-21.7" fill="#03045E" width="22.5" height="21.7"/>
	<rect x="28" y="-21.7" fill="#0078B7" width="22.5" height="21.7"/>
	<rect x="55.2" y="-21.7" fill="#01B5D8" width="22.5" height="21.7"/>
	<rect x="84.2" y="-21.7" fill="#91E0EF" width="22.5" height="21.7"/>
	<rect x="111.2" y="-21.7" fill="#CAF3F9" width="22.5" height="21.7"/>
</g>
</svg>
